<svg xmlns="http://www.w3.org/2000/svg" viewBox="0 0 240 240" width="240" height="240">
  <!-- top green terminal strip -->
  <rect x="46" y="38" width="148" height="22" rx="4" fill="#47a23f"/>
  <circle cx="61.7" cy="49" r="3.1" fill="#2f7a2a"/><circle cx="81.1" cy="49" r="3.1" fill="#2f7a2a"/><circle cx="100.6" cy="49" r="3.1" fill="#2f7a2a"/><circle cx="120.0" cy="49" r="3.1" fill="#2f7a2a"/><circle cx="139.4" cy="49" r="3.1" fill="#2f7a2a"/><circle cx="158.9" cy="49" r="3.1" fill="#2f7a2a"/><circle cx="178.3" cy="49" r="3.1" fill="#2f7a2a"/>
  <!-- bottom green terminal strip -->
  <rect x="46" y="180" width="148" height="22" rx="4" fill="#47a23f"/>
  <circle cx="61.7" cy="191" r="3.1" fill="#2f7a2a"/><circle cx="81.1" cy="191" r="3.1" fill="#2f7a2a"/><circle cx="100.6" cy="191" r="3.1" fill="#2f7a2a"/><circle cx="120.0" cy="191" r="3.1" fill="#2f7a2a"/><circle cx="139.4" cy="191" r="3.1" fill="#2f7a2a"/><circle cx="158.9" cy="191" r="3.1" fill="#2f7a2a"/><circle cx="178.3" cy="191" r="3.1" fill="#2f7a2a"/>
  <!-- module body -->
  <rect x="24" y="58" width="192" height="124" rx="15" fill="#17171a"/>
  <rect x="24" y="58" width="192" height="10" rx="15" fill="#26262b"/>
  <!-- power glyph -->
  <g stroke="#d8d8dc" stroke-width="2.2" fill="none" stroke-linecap="round">
    <path d="M50 84 a7 7 0 1 0 8 0"/>
    <line x1="54" y1="80" x2="54" y2="90"/>
  </g>
  <!-- status LED row -->
  <circle cx="78" cy="87" r="2.4" fill="#d8d8dc"/><circle cx="89" cy="87" r="2.4" fill="#d8d8dc"/><circle cx="100" cy="87" r="2.4" fill="#d8d8dc"/><circle cx="111" cy="87" r="2.4" fill="#d8d8dc"/><circle cx="122" cy="87" r="2.4" fill="#d8d8dc"/><circle cx="133" cy="87" r="2.4" fill="#d8d8dc"/><circle cx="144" cy="87" r="2.4" fill="#d8d8dc"/><circle cx="155" cy="87" r="2.4" fill="#d8d8dc"/>
  <!-- violet accent line -->
  <rect x="24" y="150" width="192" height="4.5" fill="#8b5cf6"/>
  <!-- VIOLET wordmark (reused from app icon), lower-right -->
  <g transform="translate(118,120) scale(0.82)"><path d="M1.789 8.994L1.789 28.081Q1.789 28.491 1.642 28.843Q1.496 29.194 1.232 29.451Q0.968 29.707 0.617 29.854Q0.265 30-0.130 30L-8.714 30Q-9.930 30-11.175 29.736Q-12.420 29.473-13.585 28.923Q-14.750 28.374-15.775 27.524Q-16.800 26.675-17.569 25.510Q-18.338 24.346-18.778 22.844Q-19.217 21.343-19.217 19.497L-19.217 8.994L-15.409 8.994L-15.409 19.497Q-15.409 21.108-14.962 22.222Q-14.515 23.335-13.827 24.082Q-13.138 24.829-12.318 25.254Q-11.498 25.679-10.758 25.884Q-10.018 26.089-9.454 26.140Q-8.890 26.191-8.714 26.191L-2.020 26.191L-2.020 8.994L1.789 8.994M10.050 8.994L10.050 30L6.242 30L6.242 8.994L10.050 8.994M36.549 17.490L36.549 21.504Q36.549 23.423 35.890 25.034Q35.231 26.646 34.059 27.817Q32.887 28.989 31.283 29.641Q29.679 30.293 27.790 30.293L22.633 30.293Q20.744 30.293 19.132 29.641Q17.521 28.989 16.349 27.817Q15.177 26.646 14.511 25.034Q13.844 23.423 13.844 21.504L13.844 17.490Q13.844 15.586 14.511 13.967Q15.177 12.349 16.349 11.184Q17.521 10.020 19.132 9.360Q20.744 8.701 22.633 8.701L27.790 8.701Q29.679 8.701 31.283 9.360Q32.887 10.020 34.059 11.184Q35.231 12.349 35.890 13.967Q36.549 15.586 36.549 17.490M32.741 21.504L32.741 17.490Q32.741 16.362 32.382 15.447Q32.023 14.531 31.371 13.879Q30.719 13.228 29.804 12.869Q28.888 12.510 27.790 12.510L22.633 12.510Q21.520 12.510 20.604 12.869Q19.689 13.228 19.030 13.879Q18.371 14.531 18.012 15.447Q17.653 16.362 17.653 17.490L17.653 21.504Q17.653 22.632 18.012 23.547Q18.371 24.463 19.030 25.115Q19.689 25.767 20.604 26.125Q21.520 26.484 22.633 26.484L27.760 26.484Q28.874 26.484 29.789 26.125Q30.705 25.767 31.364 25.115Q32.023 24.463 32.382 23.547Q32.741 22.632 32.741 21.504M59.606 26.191L59.606 30L42.233 30Q41.823 30 41.471 29.854Q41.120 29.707 40.863 29.451Q40.607 29.194 40.460 28.843Q40.314 28.491 40.314 28.081L40.314 8.994L44.123 8.994L44.123 26.191L59.606 26.191M79.586 17.578L79.586 21.416L67.560 21.416L67.560 17.578L79.586 17.578M81.300 26.191L81.300 30L67.560 30Q66.769 30 65.832 29.722Q64.894 29.443 64.096 28.806Q63.297 28.169 62.763 27.151Q62.228 26.133 62.228 24.653L62.228 10.913Q62.228 10.518 62.375 10.166Q62.521 9.814 62.777 9.551Q63.034 9.287 63.385 9.141Q63.737 8.994 64.147 8.994L81.300 8.994L81.300 12.803L66.037 12.803L66.037 24.653Q66.037 25.400 66.432 25.796Q66.828 26.191 67.589 26.191L81.300 26.191M103.961 8.994L103.961 12.803L95.568 12.803L95.568 30L91.759 30L91.759 12.803L83.351 12.803L83.351 8.994" fill="#ffffff"/></g>
</svg>
